PathFileType	4	(X/Y/Z)	C:/Users/beibeiliu/ov580/test_trc/capture2\sequence.29_training_dense_left.trc
DataRate	CameraRate	NumFrames	NumMarkers	Units	OrigDataRate	OrigDataStartFrame	OrigNumFrames
120	120	12	19	mm	120	298	340
Frame#	Time	ThumbCMC			ThumbMCP			ThumbIP			ThumbTip			IndexMCP			IndexPIP			IndexTip			MiddleMCP			MiddlePIP			MiddleTip			RingMCP			RingPIP			RingTip			PinkyMCP			PinkyPIP			PinkyTip			BackHand1			BackHand2			BackHand3	
		X0	Y0	Z0	X1	Y1	Z1	X2	Y2	Z2	X3	Y3	Z3	X4	Y4	Z4	X5	Y5	Z5	X6	Y6	Z6	X7	Y7	Z7	X8	Y8	Z8	X9	Y9	Z9	X10	Y10	Z10	X11	Y11	Z11	X12	Y12	Z12	X13	Y13	Z13	X14	Y14	Z14	X15	Y15	Z15	X16	Y16	Z16	X17	Y17	Z17	X18	Y18	Z18	
297	2.475	-115.98	26.4071	23.1594	-109.795	7.01359	5.58771	-92.4957	-2.92046	-13.8315	-81.4661	-10.6972	-32.6834	-117.01	58.6844	-40.2445	-110.387	62.9255	-62.054	-110.754	74.2923	-84.3942	-150.097	64.7714	-45.4018	-147.605	71.6191	-70.657	-151.505	83.736	-96.2871	-169.724	54.133	-47.8706	-177.754	53.325	-69.1692	-176.22	56.6895	-96.3041	-193.261	34.8728	-37.3276	-194.517	24.5495	-53.9729	-206.716	13.6271	-77.9895	-171.884	56.6927	4.82936	-174.979	57.7966	31.8675	-141.271	56.6769	17.111	
298	2.48333	-118.542	25.5172	22.729	-109.53	3.22554	5.55275	-98.4535	-6.46957	-18.3046	-88.7743	-14.5781	-33.8249	-120.613	60.4786	-41.4454	-114.848	64.9704	-63.5573	-110.213	77.3508	-84.3363	-146.422	66.3195	-48.3802	-149.069	72.8214	-69.5205	-156.867	85.673	-96.6805	-168.377	53.7115	-49.6512	-173.782	52.7097	-74.1884	-179.688	52.3531	-94.4529	-189.424	34.0433	-41.015	-195.847	17.9345	-57.1033	-204.23	7.66843	-72.8164	-168.907	58.2582	4.04431	-171.962	57.5941	33.1795	-140.969	58.251	18.9203	
299	2.49167	-118.789	25.7666	20.9012	-115.696	4.41294	3.81068	-101.929	-7.69937	-21.5356	-92.3532	-16.6505	-41.683	-122.769	61.5445	-42.6879	-117.767	67.4787	-62.585	-114.652	76.8583	-80.7164	-152.882	67.4365	-49.4403	-152.986	73.2034	-69.1805	-154.869	84.0553	-92.646	-174.031	52.4154	-45.9334	-179.461	49.5931	-73.131	-178.698	48.3631	-95.4436	-193.006	32.4353	-37.1421	-190.99	18.1563	-52.8294	-195.791	-1.06897	-76.5602	-172.427	59.9453	4.58684	-174.883	58.591	32.4579	-142.568	58.862	18.1338	
300	2.5	-121.629	25.6307	25.1794	-115.475	3.75439	-1.95396	-108.347	-6.50133	-23.0699	-100.212	-17.5169	-44.1758	-125.849	63.5517	-42.4149	-115.074	67.9319	-61.3187	-117.307	79.6973	-82.2277	-155.075	66.7952	-48.0187	-155.106	73.2247	-70.8046	-156.484	83.1997	-93.9598	-174.709	52.0079	-50.3219	-176.52	46.5222	-71.3251	-180.703	41.3129	-101.48	-191.76	28.5695	-41.2523	-190.995	11.6677	-52.9087	-188.75	-7.1485	-68.1526	-172.786	58.2625	4.69662	-172.436	59.3806	31.0159	-145.861	60.4015	18.0565	
301	2.50833	-123.757	26.6797	21.1672	-116.149	3.50527	-3.32974	-108.479	-9.07126	-23.1163	-105.851	-15.756	-43.5163	-126.507	62.5073	-39.3849	-117.021	68.5262	-60.5372	-112.341	80.6715	-80.8053	-154.605	65.7143	-45.116	-157.25	73.9799	-74.6389	-161.884	83.3455	-95.066	-171.35	49.623	-48.4141	-178.863	42.3503	-74.0159	-174.936	33.7429	-101.958	-190.556	27.7771	-40.5305	-185.771	6.55673	-51.2839	-178.656	-14.6417	-62.1714	-177.214	58.4701	4.40907	-176.235	59.0832	32.1453	-143.163	62.3798	18.558	
302	2.51667	-121.522	26.9049	22.0375	-115.469	3.15175	-3.49261	-111.125	-6.58404	-22.8968	-108.38	-15.7013	-50.0718	-122.525	64.6783	-37.731	-116.966	71.0294	-59.0541	-113.084	85.0389	-82.0626	-155.643	67.6635	-48.6749	-156.404	74.3341	-74.5774	-158.061	82.9805	-95.5807	-172.245	48.3022	-53.1156	-178.249	37.8251	-73.7019	-174.234	24.9677	-101.124	-186.503	26.4794	-39.6662	-178.626	3.87793	-48.2857	-169.345	-21.2567	-50.7835	-176.634	60.1005	4.40161	-179.305	57.5302	32.2874	-143.568	61.1668	21.3193	
303	2.525	-124.114	27.0393	22.813	-115.398	3.77555	-2.60616	-113.169	-5.93698	-24.4174	-109.475	-15.6198	-47.6396	-127.477	65.5573	-39.0029	-120.09	73.1433	-63.0241	-116.04	84.5914	-79.9407	-155.006	69.4268	-50.8893	-158.776	73.2955	-75.2919	-157.893	82.2891	-100.122	-174.944	46.3098	-49.3975	-172.289	35.1968	-73.3932	-171.641	17.9628	-96.7516	-184.039	27.0341	-37.9658	-176.233	-2.44942	-42.6726	-163.883	-21.8557	-38.1336	-176.665	60.4297	0.718146	-180.011	59.4128	30.1992	-145.871	61.6239	20.6664	
304	2.53333	-124.72	26.9389	21.2692	-116.011	1.8583	-1.43285	-114.003	-5.75062	-26.5565	-113.954	-13.1921	-50.416	-125.636	64.2318	-39.76	-119.033	72.3585	-63.1702	-117.754	85.1248	-80.9085	-156.792	66.5205	-48.3666	-158.894	71.0137	-71.0551	-161.958	79.8561	-99.9898	-171.914	45.3456	-53.1114	-170.339	30.7424	-76.1022	-170.735	13.2301	-91.766	-184.012	23.9387	-37.6222	-172.774	-0.586205	-37.7302	-158.825	-22.1887	-26.5275	-174.201	61.893	5.25856	-173.958	57.388	31.4971	-141.471	61.9536	19.6671	
305	2.54167	-123.468	27.2378	19.8508	-120.469	4.1513	-1.14329	-111.52	-7.4726	-27.2014	-112.017	-15.222	-50.6339	-121.245	65.3635	-41.3533	-119.287	72.6343	-60.8701	-116.003	87.0379	-82.9221	-155.932	66.3907	-45.8804	-156.298	71.0985	-72.168	-158.137	76.9678	-102.43	-173.383	45.7541	-50.8691	-175.849	29.7819	-72.641	-167.192	6.10042	-88.5281	-187.493	26.6437	-35.5057	-174.537	-1.31657	-35.7667	-156.686	-19.2775	-17.1663	-175.112	60.5619	4.15519	-177.528	60.269	30.2255	-143.668	61.5685	21.4124	
306	2.55	-124.42	25.5629	23.028	-121.297	3.69257	-3.35396	-112.629	-7.0038	-29.9506	-110.294	-15.0584	-48.9329	-125.225	65.029	-40.8659	-119.762	73.2147	-64.6025	-117.354	84.4219	-83.3135	-154.6	68.1625	-46.8834	-157.183	71.5727	-73.9064	-158.795	72.9029	-105.987	-173.7	47.0947	-52.507	-170.967	25.7106	-74.9409	-168.542	0.621441	-82.3665	-184.097	30.3245	-36.887	-174.256	0.714047	-35.8056	-161.687	-15.0925	-14.7285	-173.043	62.4433	2.9805	-175.409	59.8434	31.8704	-145.353	62.0046	20.1484	
307	2.55833	-120.33	24.5168	23.3016	-116.004	0.73449	-0.233956	-112.404	-6.89547	-26.4176	-110.813	-13.3407	-50.7148	-122.85	65.6484	-38.6599	-120.041	72.5657	-62.9052	-119.309	81.8268	-83.4938	-154.707	69.4281	-46.4962	-157.906	72.9021	-78.2959	-159.477	65.6896	-105.77	-169.312	51.4039	-52.1289	-169.535	29.6719	-73.3453	-168.668	0.393539	-75.4684	-186.93	32.8897	-39.9175	-178.942	5.69435	-42.3829	-163.969	-11.2432	-16.9948	-173.869	62.2643	5.1395	-172.544	60.1533	31.531	-140.07	61.642	21.6235	
308	2.56667	-122.708	24.2534	20.2963	-115.967	1.79508	0.448937	-107.836	-8.50802	-25.3439	-108.832	-13.5824	-47.4497	-120.799	64.424	-38.153	-114.482	72.6371	-63.7291	-117.116	78.4853	-86.5932	-151.257	71.4988	-44.0286	-153.499	71.7815	-75.7521	-159.195	56.4542	-102.676	-170.507	55.9324	-51.4738	-171.796	35.5073	-73.2907	-163.849	6.27354	-69.721	-189.414	42.524	-38.7263	-182.9	11.8568	-48.9341	-170.479	-6.16278	-29.7579	-169.07	63.5687	6.24538	-174.189	59.1976	33.0469	-142.487	59.8881	20.0938	
